<svg width="30" height="30" viewBox="0 0 30 30" fill="none"
    xmlns="http://www.w3.org/2000/svg">
    <path d="M24.9442 22.1317C24.9442 22.5781 24.7879 22.9576 24.4754 23.2701L22.1986 25.5469C21.8861 25.8594 21.5067 26.0156 21.0603 26.0156C20.6138 26.0156 20.2344 25.8594 19.9219 25.5469L15 20.625L10.0781 25.5469C9.76561 25.8594 9.38614 26.0156 8.93971 26.0156C8.49329 26.0156 8.11382 25.8594 7.80132 25.5469L5.52454 23.2701C5.21204 22.9576 5.05579 22.5781 5.05579 22.1317C5.05579 21.6853 5.21204 21.3058 5.52454 20.9933L10.4464 16.0714L5.52454 11.1495C5.21204 10.837 5.05579 10.4576 5.05579 10.0112C5.05579 9.56473 5.21204 9.18526 5.52454 8.87276L7.80132 6.59598C8.11382 6.28348 8.49329 6.12723 8.93971 6.12723C9.38614 6.12723 9.76561 6.28348 10.0781 6.59598L15 11.5179L19.9219 6.59598C20.2344 6.28348 20.6138 6.12723 21.0603 6.12723C21.5067 6.12723 21.8861 6.28348 22.1986 6.59598L24.4754 8.87276C24.7879 9.18526 24.9442 9.56473 24.9442 10.0112C24.9442 10.4576 24.7879 10.837 24.4754 11.1495L19.5536 16.0714L24.4754 20.9933C24.7879 21.3058 24.9442 21.6853 24.9442 22.1317Z" fill="white"/>
</svg>
