<svg width="30" height="25" viewBox="0 0 30 25" fill="none"
    xmlns="http://www.w3.org/2000/svg">
    <path d="M30 3.75V1.25C30 0.911455 29.8763 0.618486 29.6289 0.37109C29.3815 0.123693 29.0885 -3.8147e-06 28.75 -3.8147e-06H1.25C0.911458 -3.8147e-06 0.61849 0.123693 0.371094 0.37109C0.123698 0.618486 0 0.911455 0 1.25V3.75C0 4.08854 0.123698 4.38151 0.371094 4.6289C0.61849 4.8763 0.911458 5 1.25 5H28.75C29.0885 5 29.3815 4.8763 29.6289 4.6289C29.8763 4.38151 30 4.08854 30 3.75ZM30 13.75V11.25C30 10.9115 29.8763 10.6185 29.6289 10.3711C29.3815 10.1237 29.0885 10 28.75 10H1.25C0.911458 10 0.61849 10.1237 0.371094 10.3711C0.123698 10.6185 0 10.9115 0 11.25V13.75C0 14.0885 0.123698 14.3815 0.371094 14.6289C0.61849 14.8763 0.911458 15 1.25 15H28.75C29.0885 15 29.3815 14.8763 29.6289 14.6289C29.8763 14.3815 30 14.0885 30 13.75ZM30 23.75V21.25C30 20.9115 29.8763 20.6185 29.6289 20.3711C29.3815 20.1237 29.0885 20 28.75 20H1.25C0.911458 20 0.61849 20.1237 0.371094 20.3711C0.123698 20.6185 0 20.9115 0 21.25V23.75C0 24.0885 0.123698 24.3815 0.371094 24.6289C0.61849 24.8763 0.911458 25 1.25 25H28.75C29.0885 25 29.3815 24.8763 29.6289 24.6289C29.8763 24.3815 30 24.0885 30 23.75Z" fill="black"/>
</svg>
