<svg width="26" height="24" viewBox="0 0 26 24" fill="none"
    xmlns="http://www.w3.org/2000/svg">
    <path d="M26 15.2727V8.72727C26 8.43182 25.8928 8.17614 25.6784 7.96023C25.464 7.74432 25.2101 7.63636 24.9167 7.63636H13V1.09091C13 0.772726 12.8984 0.511362 12.6953 0.306818C12.4922 0.102272 12.2326 0 11.9167 0C11.6458 0 11.375 0.113636 11.1042 0.340908L0.304688 11.2159C0.101562 11.4205 0 11.6818 0 12C0 12.3182 0.101562 12.5795 0.304688 12.7841L11.138 23.6932C11.3411 23.8977 11.6007 24 11.9167 24C12.2101 24 12.464 23.892 12.6784 23.6761C12.8928 23.4602 13 23.2045 13 22.9091V16.3636H24.9167C25.2101 16.3636 25.464 16.2557 25.6784 16.0398C25.8928 15.8239 26 15.5682 26 15.2727Z" fill="black"/>
</svg>
